# xmcd
#
# Track frame offsets:
#	150
#	19645
#	38003
#	52288
#	68933
#	86424
#	103359
#	120698
#	136906
#	154214
#	172279
#	190796
#	207168
#	220758
#	236265
#	254715
#	272451
#	287886
#	309254
#	320881
#
# Disc length: 4470 seconds
#
# Revision: 0
# Processed by: cddbd v1.5.2PL0 Copyright (c) Steve Scherf et al.
# Submitted via: EasyCDDAExtractor 11.5.0.1
#
DISCID=2f117414
DTITLE=Various Artist - NCT 112
DYEAR=2008
DGENRE=Country
TTITLE0=Carrie Underwood - Just A Dream
TTITLE1=Billy Ray Cyrus - Somebody Said A Prayer
TTITLE2=Gretchen Wilson - Don't Do Me No Good
TTITLE3=Tim McGraw - Let It Go
TTITLE4=Billy Currington - Don't
TTITLE5=Kid Rock - All Summer Long
TTITLE6=Montgomery Gentry - Roll With Me
TTITLE7=Toby Keith - She Never Cried In Front Of Me
TTITLE8=Little Big Town - Fine Line
TTITLE9=Rascal Flatts - Bob That Head
TTITLE10=Trisha Yearwood - They Call It Falling For A Reason
TTITLE11=Pat Green - Let Me
TTITLE12=Kristy Lee Cook - 15 Minutes Of Shame
TTITLE13=Miranda Lambert - More Like Her
TTITLE14=Whitney Duncan - When I Said I Would
TTITLE15=LeAnn Rimes - What I Cannot Change
TTITLE16=Katie Armiger - Unseen
TTITLE17=Alan Jackson - Good Time (Summer Fun Too Hot To Fish Remix)
TTITLE18=Justin Moore - Back That Thing Up
TTITLE19=Rehab ft. Hank Williams Jr. - The Bartender Song (aka Sittin' At A Ba
TTITLE19=r) (Remix)
EXTD=
EXTT0=
EXTT1=
EXTT2=
EXTT3=
EXTT4=
EXTT5=
EXTT6=
EXTT7=
EXTT8=
EXTT9=
EXTT10=
EXTT11=
EXTT12=
EXTT13=
EXTT14=
EXTT15=
EXTT16=
EXTT17=
EXTT18=
EXTT19=
PLAYORDER=
